# xmcd
#
# Track frame offsets:
#	150
#	16478
#	31008
#	43524
#	61000
#	73955
#	93851
#	108719
#	134130
#	155408
#	167669
#	181189
#	200144
#	210966
#	233536
#	251430
#	265092
#	283979
#	295913
#
# Disc length: 4098 seconds
#
# Revision: 0
# Processed by: cddbd v1.5.2PL0 Copyright (c) Steve Scherf et al.
# Submitted via: EasyCDDAExtractor 16.0.6.1
#
DISCID=11100013
DTITLE=Συλλογικός δίσκος - Τα μελοποιημένα 28
DYEAR=2010
DGENRE=Έντεχνη
TTITLE0=Καλογιάννης Αντώνης-Πρωτοψάλτη Άλκ. - Θα σε ξανάβρω στους μπαξέδες [Η.
TTITLE0=Ανδριόπουλος-Μ. Ελευθερίου]
TTITLE1=Μοσχολιού Βίκυ - Ξύπνησε η πόλη [Γ. Σπανός-Λ. Παπαδόπουλος]
TTITLE2=Πουλόπουλος Γιάννης - Γειτονάκι μου [Λ. Κόκοτος-Ά. Δασκαλόπουλος]
TTITLE3=Γλυκερία - Κοίτα με στα μάτια [Μ. Θεοδωράκης-Μ. Γκανάς]
TTITLE4=Μπέλλου Σωτηρία - Στον ίδιο παρανομαστή [Δ. Μούτσης-Κ. Τριπολίτης]
TTITLE5=Νέγκα Γιώτα - Ο θερμοσίφωνας [Κ. Λειβαδάς-Θοδ. Γκόνης]
TTITLE6=Δήμου Ελένη - Στην αλάνα [Γ. Σπανός-Λ. Παπαδόπουλος]
TTITLE7=Βενετσάνου Νένα - Ο έρωτας ή Το τραγ. του Αρχιπελάγους[Η.Ανδριόπουλος-
TTITLE7=Ο.Ελύτης]
TTITLE8=Μερκούρη Μελίνα - Το τραγούδι της Μπάρμπαρα [Kurt Weil-B. Brecht, απ. 
TTITLE8=Π. Μάτεσις]
TTITLE9=Αστεριάδη Πόπη - Κάτω από το σύννεφο [Γ. Γκούμας-Δ. Χριστοδούλου]
TTITLE10=Ζορμπαλά Μαργαρίτα - Δακρυσμένα μάτια [Μ. Θεοδωράκης-Γ. Θεοδωράκης]
TTITLE11=Πουλόπουλος Γιάννης - Ο άνεμος στο νησί [Γ. Γλέζος-P. Neruda, απ. Λ. 
TTITLE11=Παπαδόπουλος]
TTITLE12=Αρλέτα - Η καλόγρια η τσιγγάνα [Μ. Θεοδωράκης-F.G.Lorca, απ. Ο. Ελύτη
TTITLE12=ς]
TTITLE13=Δημητριάδη Μαρία - Κι ήθελε ακόμη [Θ. Μικρούτσικος-Μ. Αναγνωστάκης]
TTITLE14=Μπακιρτζής Αργύρης - Ερημικός βίος [Θόδ. Θεοδωρίδης-Ανδρίκος Βέττας]
TTITLE15=Ζωγράφος Γιώργος - Πέτρινα λουλούδια [Ν. Μαμαγκάκης-Βασ. Βασιλικός]
TTITLE16=Καμένος Κώστας-Κρυστάλη Σάνια - Μιλιά, μιλιά [Γ. Κοτσώνης-Γ. Ρίτσος]
TTITLE17=Χορωδία - Αν στα νησιά των κοραλλιών [Ν. Μαμαγκάκης-Ν. Εγγονόπουλος]
TTITLE18=Αντωνιάδου Ελένη-Λαρυγγάκης Νίκος - Βέλη [Ν. Λαρυγγάκης-Αν. Εμπειρίκο
TTITLE18=ς]
EXTD=
EXTT0=
EXTT1=
EXTT2=
EXTT3=
EXTT4=
EXTT5=
EXTT6=
EXTT7=
EXTT8=
EXTT9=
EXTT10=
EXTT11=
EXTT12=
EXTT13=
EXTT14=
EXTT15=
EXTT16=
EXTT17=
EXTT18=
PLAYORDER=
